<?xml version="1.0" encoding="UTF-8" ?>
<svg version="1.1" width="16" height="16" xmlns="http://www.w3.org/2000/svg" shape-rendering="crispEdges">
<rect x="11" y="1" width="1" height="1" fill="#F9ECDF" />
<rect x="13" y="1" width="1" height="1" fill="#FFFFFF" />
<rect x="9" y="2" width="1" height="1" fill="#F8E7D8" />
<rect x="11" y="2" width="1" height="1" fill="#7EFFCA" />
<rect x="12" y="2" width="1" height="1" fill="#82F8C9" />
<rect x="13" y="2" width="1" height="1" fill="#89EDC7" />
<rect x="9" y="3" width="1" height="1" fill="#FCF5EF" />
<rect x="10" y="3" width="1" height="1" fill="#7EFFCA" />
<rect x="11" y="3" width="1" height="1" fill="#83F6C8" />
<rect x="12" y="3" width="1" height="1" fill="#8BEBC7" />
<rect x="13" y="3" width="1" height="1" fill="#92E0C6" />
<rect x="14" y="3" width="1" height="1" fill="#99D5C5" />
<rect x="7" y="4" width="1" height="1" fill="#FBF1E7" />
<rect x="9" y="4" width="1" height="1" fill="#7EFFCA" />
<rect x="10" y="4" width="1" height="1" fill="#85F4C8" />
<rect x="11" y="4" width="1" height="1" fill="#8CE9C7" />
<rect x="12" y="4" width="1" height="1" fill="#93DEC6" />
<rect x="13" y="4" width="1" height="1" fill="#9BD3C4" />
<rect x="14" y="4" width="1" height="1" fill="#A2C8C3" />
<rect x="15" y="4" width="1" height="1" fill="#A9BEC2" />
<rect x="5" y="5" width="1" height="1" fill="#F9ECDF" />
<rect x="7" y="5" width="1" height="1" fill="#FFFFFF" />
<rect x="8" y="5" width="1" height="1" fill="#7FFCC9" />
<rect x="9" y="5" width="1" height="1" fill="#86F2C8" />
<rect x="10" y="5" width="1" height="1" fill="#8EE7C7" />
<rect x="11" y="5" width="1" height="1" fill="#95DCC5" />
<rect x="12" y="5" width="1" height="1" fill="#9CD1C4" />
<rect x="13" y="5" width="1" height="1" fill="#A3C6C3" />
<rect x="14" y="5" width="1" height="1" fill="#ABBBC1" />
<rect x="15" y="5" width="1" height="1" fill="#B2B1C0" />
<rect x="3" y="6" width="1" height="1" fill="#F8E7D8" />
<rect x="5" y="6" width="1" height="1" fill="#FDFAF7" />
<rect x="6" y="6" width="1" height="1" fill="#7EFFCA" />
<rect x="7" y="6" width="1" height="1" fill="#80FAC9" />
<rect x="8" y="6" width="1" height="1" fill="#88EFC8" />
<rect x="9" y="6" width="1" height="1" fill="#8FE5C6" />
<rect x="10" y="6" width="1" height="1" fill="#96DAC5" />
<rect x="11" y="6" width="1" height="1" fill="#9ECFC4" />
<rect x="12" y="6" width="1" height="1" fill="#A5C4C2" />
<rect x="13" y="6" width="1" height="1" fill="#ACB9C1" />
<rect x="14" y="6" width="1" height="1" fill="#B3AEC0" />
<rect x="3" y="7" width="1" height="1" fill="#FCF5EF" />
<rect x="4" y="7" width="1" height="1" fill="#7EFFCA" />
<rect x="5" y="7" width="1" height="1" fill="#7EFFCA" />
<rect x="6" y="7" width="1" height="1" fill="#82F8C9" />
<rect x="7" y="7" width="1" height="1" fill="#89EDC7" />
<rect x="8" y="7" width="1" height="1" fill="#90E2C6" />
<rect x="9" y="7" width="1" height="1" fill="#98D8C5" />
<rect x="10" y="7" width="1" height="1" fill="#9FCDC3" />
<rect x="11" y="7" width="1" height="1" fill="#A6C2C2" />
<rect x="12" y="7" width="1" height="1" fill="#AEB7C1" />
<rect x="13" y="7" width="1" height="1" fill="#B5ACC0" />
<rect x="0" y="8" width="1" height="1" fill="#F8E7D8" />
<rect x="1" y="8" width="1" height="1" fill="#FBF1E7" />
<rect x="2" y="8" width="1" height="1" fill="#7EFFCA" />
<rect x="3" y="8" width="1" height="1" fill="#7EFFCA" />
<rect x="4" y="8" width="1" height="1" fill="#7EFFCA" />
<rect x="5" y="8" width="1" height="1" fill="#83F6C8" />
<rect x="6" y="8" width="1" height="1" fill="#8BEBC7" />
<rect x="7" y="8" width="1" height="1" fill="#92E0C6" />
<rect x="8" y="8" width="1" height="1" fill="#99D5C5" />
<rect x="9" y="8" width="1" height="1" fill="#A1CBC3" />
<rect x="10" y="8" width="1" height="1" fill="#A8C0C2" />
<rect x="11" y="8" width="1" height="1" fill="#AFB5C1" />
<rect x="12" y="8" width="1" height="1" fill="#B6AABF" />
<rect x="1" y="9" width="1" height="1" fill="#FFFFFF" />
<rect x="2" y="9" width="1" height="1" fill="#6458E1" />
<rect x="3" y="9" width="1" height="1" fill="#6458E1" />
<rect x="4" y="9" width="1" height="1" fill="#D95763" />
<rect x="5" y="9" width="1" height="1" fill="#BA34EE" />
<rect x="6" y="9" width="1" height="1" fill="#BA34EE" />
<rect x="7" y="9" width="1" height="1" fill="#D04F59" />
<rect x="8" y="9" width="1" height="1" fill="#A2C8C3" />
<rect x="9" y="9" width="1" height="1" fill="#A9BEC2" />
<rect x="10" y="9" width="1" height="1" fill="#B1B3C0" />
<rect x="11" y="9" width="1" height="1" fill="#B8A8BF" />
<rect x="3" y="10" width="1" height="1" fill="#6458E1" />
<rect x="4" y="10" width="1" height="1" fill="#6458E1" />
<rect x="5" y="10" width="1" height="1" fill="#D95763" />
<rect x="6" y="10" width="1" height="1" fill="#BA34EE" />
<rect x="7" y="10" width="1" height="1" fill="#BA34EE" />
<rect x="8" y="10" width="1" height="1" fill="#C7484F" />
<rect x="9" y="10" width="1" height="1" fill="#B2B1C0" />
<rect x="10" y="10" width="1" height="1" fill="#B9A6BF" />
<rect x="11" y="10" width="1" height="1" fill="#C19BBD" />
<rect x="4" y="11" width="1" height="1" fill="#6458E1" />
<rect x="5" y="11" width="1" height="1" fill="#6655D5" />
<rect x="6" y="11" width="1" height="1" fill="#D04F59" />
<rect x="7" y="11" width="1" height="1" fill="#BA34EE" />
<rect x="8" y="11" width="1" height="1" fill="#B535E6" />
<rect x="9" y="11" width="1" height="1" fill="#B036DF" />
<rect x="10" y="11" width="1" height="1" fill="#AABDC2" />
<rect x="11" y="11" width="1" height="1" fill="#B9A6BF" />
<rect x="12" y="11" width="1" height="1" fill="#D183BB" />
<rect x="5" y="12" width="1" height="1" fill="#6753CF" />
<rect x="6" y="12" width="1" height="1" fill="#6A50C4" />
<rect x="7" y="12" width="1" height="1" fill="#C7484F" />
<rect x="8" y="12" width="1" height="1" fill="#C14348" />
<rect x="9" y="12" width="1" height="1" fill="#AB37D8" />
<rect x="10" y="12" width="1" height="1" fill="#A638D1" />
<rect x="11" y="12" width="1" height="1" fill="#AABDC2" />
<rect x="12" y="12" width="1" height="1" fill="#C09CBE" />
<rect x="13" y="12" width="1" height="1" fill="#D77BBA" />
<rect x="6" y="13" width="1" height="1" fill="#6B4FBE" />
<rect x="7" y="13" width="1" height="1" fill="#6D4CB2" />
<rect x="8" y="13" width="1" height="1" fill="#7049A7" />
<rect x="9" y="13" width="1" height="1" fill="#B83B3F" />
<rect x="10" y="13" width="1" height="1" fill="#B23638" />
<rect x="11" y="13" width="1" height="1" fill="#94DEC6" />
<rect x="12" y="13" width="1" height="1" fill="#AABDC2" />
<rect x="13" y="13" width="1" height="1" fill="#C09CBE" />
<rect x="14" y="13" width="1" height="1" fill="#D77BBA" />
<rect x="8" y="14" width="1" height="1" fill="#7147A1" />
<rect x="9" y="14" width="1" height="1" fill="#734495" />
<rect x="10" y="14" width="1" height="1" fill="#76428A" />
<rect x="11" y="14" width="1" height="1" fill="#7EFFCA" />
<rect x="12" y="14" width="1" height="1" fill="#94DEC6" />
<rect x="13" y="14" width="1" height="1" fill="#AABDC2" />
<rect x="14" y="14" width="1" height="1" fill="#C09CBE" />
<rect x="15" y="14" width="1" height="1" fill="#D77BBA" />
<rect x="13" y="15" width="1" height="1" fill="#94DEC6" />
<rect x="14" y="15" width="1" height="1" fill="#AABDC2" />
<rect x="15" y="15" width="1" height="1" fill="#C09CBE" />
</svg>