<?xml version="1.0" encoding="UTF-8" ?>
<svg version="1.1" width="16" height="16" xmlns="http://www.w3.org/2000/svg" shape-rendering="crispEdges">
<rect x="4" y="3" width="1" height="1" fill="#DA5F4F" />
<rect x="5" y="3" width="1" height="1" fill="#DB604C" />
<rect x="6" y="3" width="1" height="1" fill="#DB6149" />
<rect x="7" y="3" width="1" height="1" fill="#DB6346" />
<rect x="8" y="3" width="1" height="1" fill="#DC6443" />
<rect x="3" y="4" width="1" height="1" fill="#DA5E50" />
<rect x="4" y="4" width="1" height="1" fill="#DB604D" />
<rect x="5" y="4" width="1" height="1" fill="#DB614A" />
<rect x="6" y="4" width="1" height="1" fill="#DB6247" />
<rect x="7" y="4" width="1" height="1" fill="#DC6444" />
<rect x="8" y="4" width="1" height="1" fill="#DC6541" />
<rect x="9" y="4" width="1" height="1" fill="#DC663E" />
<rect x="2" y="5" width="1" height="1" fill="#DA5E51" />
<rect x="3" y="5" width="1" height="1" fill="#DB5F4E" />
<rect x="4" y="5" width="1" height="1" fill="#DB604B" />
<rect x="5" y="5" width="1" height="1" fill="#DB6248" />
<rect x="6" y="5" width="1" height="1" fill="#DB6345" />
<rect x="7" y="5" width="1" height="1" fill="#DC6442" />
<rect x="8" y="5" width="1" height="1" fill="#62A1FB" />
<rect x="9" y="5" width="1" height="1" fill="#61A9F6" />
<rect x="10" y="5" width="1" height="1" fill="#61B1F2" />
<rect x="1" y="6" width="1" height="1" fill="#DA5D52" />
<rect x="2" y="6" width="1" height="1" fill="#DA5F4F" />
<rect x="3" y="6" width="1" height="1" fill="#DB604C" />
<rect x="4" y="6" width="1" height="1" fill="#DB6149" />
<rect x="5" y="6" width="1" height="1" fill="#DB6246" />
<rect x="6" y="6" width="1" height="1" fill="#DC6443" />
<rect x="7" y="6" width="1" height="1" fill="#639BFF" />
<rect x="8" y="6" width="1" height="1" fill="#62A3FA" />
<rect x="9" y="6" width="1" height="1" fill="#61ABF6" />
<rect x="10" y="6" width="1" height="1" fill="#61B3F1" />
<rect x="11" y="6" width="1" height="1" fill="#60BBED" />
<rect x="0" y="7" width="1" height="1" fill="#DA5D54" />
<rect x="1" y="7" width="1" height="1" fill="#DA5E51" />
<rect x="2" y="7" width="1" height="1" fill="#DB5F4E" />
<rect x="3" y="7" width="1" height="1" fill="#222034" />
<rect x="4" y="7" width="1" height="1" fill="#222034" />
<rect x="5" y="7" width="1" height="1" fill="#DB6345" />
<rect x="6" y="7" width="1" height="1" fill="#DC6542" />
<rect x="7" y="7" width="1" height="1" fill="#629CFE" />
<rect x="8" y="7" width="1" height="1" fill="#62A4F9" />
<rect x="9" y="7" width="1" height="1" fill="#61ACF5" />
<rect x="10" y="7" width="1" height="1" fill="#60B4F1" />
<rect x="11" y="7" width="1" height="1" fill="#60BCEC" />
<rect x="12" y="7" width="1" height="1" fill="#5FC4E8" />
<rect x="0" y="8" width="1" height="1" fill="#DA5E52" />
<rect x="1" y="8" width="1" height="1" fill="#222034" />
<rect x="2" y="8" width="1" height="1" fill="#222034" />
<rect x="3" y="8" width="1" height="1" fill="#DB6149" />
<rect x="4" y="8" width="1" height="1" fill="#DB6346" />
<rect x="5" y="8" width="1" height="1" fill="#DC6443" />
<rect x="6" y="8" width="1" height="1" fill="#DC6540" />
<rect x="7" y="8" width="1" height="1" fill="#DC673D" />
<rect x="8" y="8" width="1" height="1" fill="#62A5F9" />
<rect x="9" y="8" width="1" height="1" fill="#61ADF4" />
<rect x="10" y="8" width="1" height="1" fill="#60B6F0" />
<rect x="11" y="8" width="1" height="1" fill="#60BEEC" />
<rect x="12" y="8" width="1" height="1" fill="#5FC6E7" />
<rect x="13" y="8" width="1" height="1" fill="#5FCDE4" />
<rect x="0" y="9" width="1" height="1" fill="#DA5E50" />
<rect x="1" y="9" width="1" height="1" fill="#DB604D" />
<rect x="2" y="9" width="1" height="1" fill="#DB614A" />
<rect x="3" y="9" width="1" height="1" fill="#DB6247" />
<rect x="4" y="9" width="1" height="1" fill="#DC6444" />
<rect x="5" y="9" width="1" height="1" fill="#222034" />
<rect x="6" y="9" width="1" height="1" fill="#222034" />
<rect x="7" y="9" width="1" height="1" fill="#DC673B" />
<rect x="8" y="9" width="1" height="1" fill="#DD6938" />
<rect x="9" y="9" width="1" height="1" fill="#61AFF4" />
<rect x="10" y="9" width="1" height="1" fill="#60B7EF" />
<rect x="11" y="9" width="1" height="1" fill="#60BFEB" />
<rect x="12" y="9" width="1" height="1" fill="#5FC7E6" />
<rect x="13" y="9" width="1" height="1" fill="#DE6F29" />
<rect x="14" y="9" width="1" height="1" fill="#DE7026" />
<rect x="1" y="10" width="1" height="1" fill="#DB604B" />
<rect x="2" y="10" width="1" height="1" fill="#DB6248" />
<rect x="3" y="10" width="1" height="1" fill="#222034" />
<rect x="4" y="10" width="1" height="1" fill="#222034" />
<rect x="5" y="10" width="1" height="1" fill="#DC663F" />
<rect x="6" y="10" width="1" height="1" fill="#DC673C" />
<rect x="7" y="10" width="1" height="1" fill="#DD6839" />
<rect x="8" y="10" width="1" height="1" fill="#DD6936" />
<rect x="9" y="10" width="1" height="1" fill="#DD6B33" />
<rect x="10" y="10" width="1" height="1" fill="#DD6C30" />
<rect x="11" y="10" width="1" height="1" fill="#DE6D2D" />
<rect x="12" y="10" width="1" height="1" fill="#DE6E2A" />
<rect x="13" y="10" width="1" height="1" fill="#DE7027" />
<rect x="14" y="10" width="1" height="1" fill="#DF7126" />
<rect x="2" y="11" width="1" height="1" fill="#DB6246" />
<rect x="3" y="11" width="1" height="1" fill="#DC6443" />
<rect x="4" y="11" width="1" height="1" fill="#DC6540" />
<rect x="5" y="11" width="1" height="1" fill="#DC663D" />
<rect x="6" y="11" width="1" height="1" fill="#DC683A" />
<rect x="7" y="11" width="1" height="1" fill="#222034" />
<rect x="8" y="11" width="1" height="1" fill="#222034" />
<rect x="9" y="11" width="1" height="1" fill="#DD6B31" />
<rect x="10" y="11" width="1" height="1" fill="#DE6D2E" />
<rect x="11" y="11" width="1" height="1" fill="#DE6E2B" />
<rect x="12" y="11" width="1" height="1" fill="#DE6F28" />
<rect x="13" y="11" width="1" height="1" fill="#DF7126" />
<rect x="14" y="11" width="1" height="1" fill="#DF7126" />
<rect x="3" y="12" width="1" height="1" fill="#DC6542" />
<rect x="4" y="12" width="1" height="1" fill="#DC663F" />
<rect x="5" y="12" width="1" height="1" fill="#222034" />
<rect x="6" y="12" width="1" height="1" fill="#222034" />
<rect x="7" y="12" width="1" height="1" fill="#DD6A36" />
<rect x="8" y="12" width="1" height="1" fill="#3F3F74" />
<rect x="9" y="12" width="1" height="1" fill="#443F76" />
<rect x="10" y="12" width="1" height="1" fill="#4A3F78" />
<rect x="11" y="12" width="1" height="1" fill="#4F3F7A" />
<rect x="12" y="12" width="1" height="1" fill="#55407C" />
<rect x="13" y="12" width="1" height="1" fill="#5A407F" />
<rect x="14" y="12" width="1" height="1" fill="#604081" />
<rect x="15" y="12" width="1" height="1" fill="#654183" />
<rect x="4" y="13" width="1" height="1" fill="#DC673D" />
<rect x="5" y="13" width="1" height="1" fill="#DD683A" />
<rect x="6" y="13" width="1" height="1" fill="#DD6937" />
<rect x="7" y="13" width="1" height="1" fill="#DD6A34" />
<rect x="8" y="13" width="1" height="1" fill="#DD6C31" />
<rect x="9" y="13" width="1" height="1" fill="#443F76" />
<rect x="10" y="13" width="1" height="1" fill="#4A3F78" />
<rect x="11" y="13" width="1" height="1" fill="#AC3232" />
<rect x="12" y="13" width="1" height="1" fill="#55407C" />
<rect x="13" y="13" width="1" height="1" fill="#AC3232" />
<rect x="14" y="13" width="1" height="1" fill="#604081" />
<rect x="15" y="13" width="1" height="1" fill="#AC3232" />
<rect x="10" y="14" width="1" height="1" fill="#4A3F78" />
<rect x="11" y="14" width="1" height="1" fill="#4F3F7A" />
<rect x="12" y="14" width="1" height="1" fill="#55407C" />
<rect x="13" y="14" width="1" height="1" fill="#5A407F" />
<rect x="14" y="14" width="1" height="1" fill="#604081" />
<rect x="15" y="14" width="1" height="1" fill="#654183" />
</svg>